<svg width="14" height="14" viewBox="0 0 14 14" fill="none" xmlns="http://www.w3.org/2000/svg">
<g clip-path="url(#clip0_67_24)">
<path d="M13.829 13.0047L10.347 9.52275C11.2959 8.36226 11.7624 6.88147 11.6501 5.38666C11.5378 3.89185 10.8552 2.49739 9.74363 1.49172C8.63202 0.486046 7.17638 -0.0538984 5.67783 -0.0164298C4.17928 0.0210388 2.75245 0.633053 1.69248 1.69302C0.632511 2.75299 0.0204971 4.17982 -0.0169715 5.67837C-0.05444 7.17693 0.485504 8.63256 1.49118 9.74417C2.49685 10.8558 3.89131 11.5383 5.38612 11.6507C6.88093 11.763 8.36172 11.2964 9.52221 10.3476L13.0041 13.8295C13.1141 13.9358 13.2615 13.9946 13.4144 13.9932C13.5674 13.9919 13.7137 13.9305 13.8219 13.8224C13.93 13.7142 13.9914 13.5679 13.9927 13.415C13.994 13.262 13.9352 13.1147 13.829 13.0047ZM5.83321 10.5004C4.91023 10.5004 4.00797 10.2267 3.24055 9.71394C2.47312 9.20116 1.87498 8.47233 1.52177 7.6196C1.16856 6.76688 1.07614 5.82857 1.25621 4.92333C1.43627 4.01808 1.88073 3.18656 2.53337 2.53392C3.18602 1.88127 4.01754 1.43681 4.92278 1.25675C5.82803 1.07669 6.76634 1.1691 7.61906 1.52231C8.47178 1.87552 9.20062 2.47366 9.7134 3.24109C10.2262 4.00852 10.4999 4.91077 10.4999 5.83375C10.4985 7.071 10.0064 8.25718 9.1315 9.13204C8.25663 10.0069 7.07046 10.499 5.83321 10.5004Z" fill="#6A7782"/>
</g>
<defs>
<clipPath id="clip0_67_24">
<rect width="14" height="14" fill="white"/>
</clipPath>
</defs>
</svg>
