<svg width="25" height="24" viewBox="0 0 25 24" fill="none" xmlns="http://www.w3.org/2000/svg">
<g clip-path="url(#clip0_205_77)">
<path d="M19.5 4.99937H17.5V3.99937C17.5 3.20372 17.1839 2.44066 16.6213 1.87805C16.0587 1.31544 15.2956 0.999374 14.5 0.999374H3.5C2.70435 0.999374 1.94129 1.31544 1.37868 1.87805C0.81607 2.44066 0.5 3.20372 0.5 3.99937L0.5 18.9994H2.541C2.51527 19.1648 2.50157 19.3319 2.5 19.4994C2.5 20.4276 2.86875 21.3179 3.52513 21.9742C4.1815 22.6306 5.07174 22.9994 6 22.9994C6.92826 22.9994 7.8185 22.6306 8.47487 21.9742C9.13125 21.3179 9.5 20.4276 9.5 19.4994C9.49843 19.3319 9.48473 19.1648 9.459 18.9994H15.541C15.5153 19.1648 15.5016 19.3319 15.5 19.4994C15.5 20.4276 15.8687 21.3179 16.5251 21.9742C17.1815 22.6306 18.0717 22.9994 19 22.9994C19.9283 22.9994 20.8185 22.6306 21.4749 21.9742C22.1313 21.3179 22.5 20.4276 22.5 19.4994C22.4984 19.3319 22.4847 19.1648 22.459 18.9994H24.5V9.99937C24.4984 8.67378 23.9711 7.40293 23.0338 6.46559C22.0964 5.52826 20.8256 5.00096 19.5 4.99937ZM19.5 6.99937C20.2956 6.99937 21.0587 7.31544 21.6213 7.87805C22.1839 8.44066 22.5 9.20372 22.5 9.99937V10.9994H17.5V6.99937H19.5ZM7.5 19.4994C7.5 19.8972 7.34196 20.2787 7.06066 20.56C6.77936 20.8413 6.39782 20.9994 6 20.9994C5.60218 20.9994 5.22064 20.8413 4.93934 20.56C4.65804 20.2787 4.5 19.8972 4.5 19.4994C4.50061 19.3285 4.53212 19.1591 4.593 18.9994H7.407C7.46788 19.1591 7.49939 19.3285 7.5 19.4994ZM15.5 16.9994H2.5V3.99937C2.5 3.73416 2.60536 3.4798 2.79289 3.29227C2.98043 3.10473 3.23478 2.99937 3.5 2.99937H14.5C14.7652 2.99937 15.0196 3.10473 15.2071 3.29227C15.3946 3.4798 15.5 3.73416 15.5 3.99937V16.9994ZM20.5 19.4994C20.5 19.8972 20.342 20.2787 20.0607 20.56C19.7794 20.8413 19.3978 20.9994 19 20.9994C18.6022 20.9994 18.2206 20.8413 17.9393 20.56C17.658 20.2787 17.5 19.8972 17.5 19.4994C17.5004 19.3284 17.5319 19.159 17.593 18.9994H20.407C20.4681 19.159 20.4996 19.3284 20.5 19.4994ZM17.5 16.9994V12.9994H22.5V16.9994H17.5Z" fill="#01A971"/>
</g>
<defs>
<clipPath id="clip0_205_77">
<rect width="24" height="24" fill="white" transform="translate(0.5)"/>
</clipPath>
</defs>
</svg>
